<svg width="379" height="45" viewBox="0 0 379 45" fill="none" xmlns="http://www.w3.org/2000/svg">
<path d="M0.15625 6.59375C0.15625 5.71875 0.322917 4.89583 0.65625 4.125C0.989583 3.33333 1.44792 2.65625 2.03125 2.09375C2.61458 1.51042 3.29167 1.05208 4.0625 0.71875C4.85417 0.364583 5.6875 0.1875 6.5625 0.1875H30.875C31.75 0.1875 32.5729 0.364583 33.3438 0.71875C34.1354 1.05208 34.8229 1.51042 35.4062 2.09375C35.9896 2.65625 36.4479 3.33333 36.7812 4.125C37.1146 4.89583 37.2812 5.71875 37.2812 6.59375V12.375H30.875V6.59375H6.5625V38.5938H30.875V32.8438H37.2812V38.5938C37.2812 39.4688 37.1146 40.3021 36.7812 41.0938C36.4479 41.8646 35.9896 42.5417 35.4062 43.125C34.8229 43.7083 34.1354 44.1667 33.3438 44.5C32.5729 44.8333 31.75 45 30.875 45H6.5625C5.6875 45 4.85417 44.8333 4.0625 44.5C3.29167 44.1667 2.61458 43.7083 2.03125 43.125C1.44792 42.5417 0.989583 41.8646 0.65625 41.0938C0.322917 40.3021 0.15625 39.4688 0.15625 38.5938V6.59375ZM67.375 0.1875L84.6562 45H78.25L74.2812 34.6875H54.0625L50.0938 45H43.6875L60.9688 0.1875H67.375ZM56.5 28.2812H71.8125L64.1875 8.53125L56.5 28.2812ZM92.3438 6.59375C92.3438 5.71875 92.5104 4.89583 92.8438 4.125C93.1771 3.33333 93.6354 2.65625 94.2188 2.09375C94.8021 1.51042 95.4792 1.05208 96.25 0.71875C97.0417 0.364583 97.875 0.1875 98.75 0.1875H123.062C123.938 0.1875 124.76 0.364583 125.531 0.71875C126.323 1.05208 127.01 1.51042 127.594 2.09375C128.177 2.65625 128.635 3.33333 128.969 4.125C129.302 4.89583 129.469 5.71875 129.469 6.59375V12.375H123.062V6.59375H98.75V38.5938H123.062V32.8438H129.469V38.5938C129.469 39.4688 129.302 40.3021 128.969 41.0938C128.635 41.8646 128.177 42.5417 127.594 43.125C127.01 43.7083 126.323 44.1667 125.531 44.5C124.76 44.8333 123.938 45 123.062 45H98.75C97.875 45 97.0417 44.8333 96.25 44.5C95.4792 44.1667 94.8021 43.7083 94.2188 43.125C93.6354 42.5417 93.1771 41.8646 92.8438 41.0938C92.5104 40.3021 92.3438 39.4688 92.3438 38.5938V6.59375ZM159.562 0.1875L176.844 45H170.438L166.469 34.6875H146.25L142.281 45H135.875L153.156 0.1875H159.562ZM148.688 28.2812H164L156.375 8.53125L148.688 28.2812ZM207.656 45L190.938 12.1562V45H184.531V0.1875H191.531L208.594 33.9375L225.688 0.1875H232.656V45H226.281V12.1562L209.562 45H207.656ZM244.219 0.1875H250.625V38.5938H276.219V0.1875H282.625V38.5938C282.625 39.4688 282.458 40.3021 282.125 41.0938C281.792 41.8646 281.333 42.5417 280.75 43.125C280.167 43.7083 279.479 44.1667 278.688 44.5C277.917 44.8333 277.094 45 276.219 45H250.625C249.75 45 248.917 44.8333 248.125 44.5C247.354 44.1667 246.677 43.7083 246.094 43.125C245.51 42.5417 245.052 41.8646 244.719 41.0938C244.385 40.3021 244.219 39.4688 244.219 38.5938V0.1875ZM294.156 6.59375C294.156 5.71875 294.323 4.89583 294.656 4.125C294.99 3.33333 295.448 2.65625 296.031 2.09375C296.615 1.51042 297.292 1.05208 298.062 0.71875C298.854 0.364583 299.688 0.1875 300.562 0.1875H324.875C325.75 0.1875 326.573 0.364583 327.344 0.71875C328.135 1.05208 328.823 1.51042 329.406 2.09375C329.99 2.65625 330.448 3.33333 330.781 4.125C331.115 4.89583 331.281 5.71875 331.281 6.59375V12.375H324.875V6.59375H300.562V38.5938H324.875V32.8438H331.281V38.5938C331.281 39.4688 331.115 40.3021 330.781 41.0938C330.448 41.8646 329.99 42.5417 329.406 43.125C328.823 43.7083 328.135 44.1667 327.344 44.5C326.573 44.8333 325.75 45 324.875 45H300.562C299.688 45 298.854 44.8333 298.062 44.5C297.292 44.1667 296.615 43.7083 296.031 43.125C295.448 42.5417 294.99 41.8646 294.656 41.0938C294.323 40.3021 294.156 39.4688 294.156 38.5938V6.59375ZM361.375 0.1875L378.656 45H372.25L368.281 34.6875H348.062L344.094 45H337.688L354.969 0.1875H361.375ZM350.5 28.2812H365.812L358.188 8.53125L350.5 28.2812Z" fill="#1677FF"/>
</svg>
